<svg width="114" height="54" viewBox="0 0 114 54" fill="none" xmlns="http://www.w3.org/2000/svg">
<g clip-path="url(#clip0_59_2136)">
<line x1="56.5815" y1="25.6021" x2="56.5815" y2="17.3282" stroke="#F9F9F9" stroke-width="0.624438"/>
<ellipse cx="56.5814" cy="9.05439" rx="8.89824" ry="2.02942" transform="rotate(-90 56.5814 9.05439)" fill="#F9F9F9"/>
<line x1="62.2012" y1="25.6021" x2="62.2012" y2="18.8003" stroke="#F9F9F9" stroke-width="0.513342"/>
<ellipse cx="62.2013" cy="11.9984" rx="7.31512" ry="1.66836" transform="rotate(-90 62.2013 11.9984)" fill="#F9F9F9"/>
<line x1="67.3043" y1="25.6016" x2="67.3043" y2="20.3733" stroke="#F9F9F9" stroke-width="0.394584"/>
<ellipse cx="67.3044" cy="15.1452" rx="5.62282" ry="1.2824" transform="rotate(-90 67.3044 15.1452)" fill="#F9F9F9"/>
<line x1="46.3117" y1="25.6016" x2="46.3117" y2="20.3733" stroke="#F9F9F9" stroke-width="0.394584"/>
<ellipse cx="46.3117" cy="15.1452" rx="5.62282" ry="1.2824" transform="rotate(-90 46.3117 15.1452)" fill="#F9F9F9"/>
<line x1="51.0689" y1="25.6021" x2="51.0689" y2="18.8003" stroke="#F9F9F9" stroke-width="0.513342"/>
<ellipse cx="51.069" cy="11.9984" rx="7.31512" ry="1.66836" transform="rotate(-90 51.069 11.9984)" fill="#F9F9F9"/>
</g>
<line x1="43" y1="25.8064" x2="70.6596" y2="25.8064" stroke="#F9F9F9" stroke-width="0.387234"/>
<path d="M15.432 30.912L7.728 37.896L15.816 48H13.728L6.576 39L3.312 41.976V48H1.704V30.912H3.312V40.104L13.272 30.912H15.432ZM17.2905 48V30.912H18.9225V46.248L28.6185 30.912H30.7305V48H29.0985V32.664L19.4025 48H17.2905ZM47.6289 30.912V48H45.9969V32.304H35.7969V48H34.1649V30.912H47.6289ZM57.8554 30.864L64.6714 48H62.8714L60.8074 42.624H52.9834L50.8954 48H49.1434L56.0554 30.864H57.8554ZM60.3034 41.304L56.9434 32.4L53.4874 41.304H60.3034ZM66.2766 30.912H73.5966C75.2446 30.912 76.5486 31.328 77.5086 32.16C78.4846 32.976 78.9726 34.16 78.9726 35.712C78.9726 37.344 78.4846 38.584 77.5086 39.432C76.5326 40.28 75.2126 40.704 73.5486 40.704H67.9086V48H66.2766V30.912ZM67.9086 32.304V39.336H73.0926C74.3566 39.336 75.3806 39.056 76.1646 38.496C76.9486 37.92 77.3406 37.032 77.3406 35.832C77.3406 34.648 76.9806 33.768 76.2606 33.192C75.5406 32.6 74.5406 32.304 73.2606 32.304H67.9086ZM81.3218 48V30.912H82.9538V46.248L92.6498 30.912H94.7618V48H93.1298V32.664L83.4338 48H81.3218ZM112.596 41.448C112.42 43.56 111.66 45.248 110.316 46.512C108.988 47.76 107.3 48.384 105.252 48.384C102.884 48.384 100.988 47.576 99.5642 45.96C98.1402 44.344 97.4282 42.184 97.4282 39.48C97.4282 36.952 98.1322 34.824 99.5402 33.096C100.964 31.368 102.916 30.504 105.396 30.504C107.124 30.504 108.668 31.016 110.028 32.04C111.404 33.048 112.188 34.384 112.38 36.048H110.748C110.492 34.784 109.876 33.784 108.9 33.048C107.924 32.296 106.74 31.92 105.348 31.92C103.46 31.92 101.932 32.616 100.764 34.008C99.6122 35.384 99.0362 37.208 99.0362 39.48C99.0362 41.752 99.6042 43.576 100.74 44.952C101.892 46.312 103.412 46.992 105.3 46.992C106.948 46.992 108.26 46.488 109.236 45.48C110.212 44.456 110.796 43.112 110.988 41.448H112.596Z" fill="#F9F9F9"/>
<defs>
<clipPath id="clip0_59_2136">
<rect width="27.1631" height="25.602" fill="white" transform="translate(43)"/>
</clipPath>
</defs>
</svg>
