<svg width="24" height="24" viewBox="0 0 24 24" fill="none" xmlns="http://www.w3.org/2000/svg">
<path d="M11.29 2.012C13.5514 2.12861 15.6816 3.10904 17.241 4.75088C18.8004 6.39272 19.6699 8.57063 19.67 10.835L19.658 11.29C19.5604 13.2143 18.8339 15.0535 17.59 16.525L22.065 21L21.004 22.06L16.53 17.587C14.9384 18.9341 12.9202 19.6723 10.835 19.67L10.38 19.658C8.19715 19.5454 6.13354 18.6276 4.58797 17.082C3.04241 15.5365 2.12463 13.4729 2.012 11.29L2 10.835C2 10.687 2.004 10.5403 2.012 10.395L2.019 10.277C2.025 10.1703 2.03333 10.0637 2.044 9.957C2.04867 9.91233 2.05367 9.868 2.059 9.824C2.06833 9.73333 2.07967 9.644 2.093 9.556C2.13431 9.27356 2.18904 8.99324 2.257 8.716C2.29278 8.57171 2.33212 8.42834 2.375 8.286C2.387 8.24267 2.40033 8.19967 2.415 8.157C2.44433 8.067 2.47433 7.977 2.505 7.887C2.52233 7.837 2.54033 7.78767 2.559 7.739C2.58967 7.657 2.62167 7.57567 2.655 7.495C2.671 7.45433 2.68767 7.41367 2.705 7.373C2.753 7.25833 2.80433 7.14433 2.859 7.031L2.876 6.995C2.99419 6.7513 3.12332 6.51306 3.263 6.281C3.29033 6.23633 3.31833 6.19167 3.347 6.147C3.393 6.073 3.44 5.99967 3.488 5.927C3.52333 5.87567 3.559 5.82467 3.595 5.774C3.635 5.716 3.67567 5.65867 3.717 5.602C3.75233 5.55333 3.78833 5.50567 3.825 5.459C3.95756 5.2867 4.09632 5.11925 4.241 4.957L4.351 4.834C4.44091 4.73732 4.53293 4.64263 4.627 4.55C4.68367 4.494 4.74133 4.43933 4.8 4.386C4.84533 4.34133 4.892 4.29767 4.94 4.255C5.00867 4.19433 5.07767 4.13467 5.147 4.076L5.227 4.006C5.34335 3.91104 5.46205 3.81902 5.583 3.73C5.79382 3.5739 6.01136 3.42709 6.235 3.29L6.338 3.23C6.418 3.18333 6.49833 3.13733 6.579 3.092L6.734 3.01C6.80333 2.97333 6.87267 2.93733 6.942 2.902L7.106 2.825C7.35154 2.71041 7.60213 2.60698 7.857 2.515C7.94882 2.4825 8.04117 2.4515 8.134 2.422L8.24 2.388C8.34467 2.356 8.45 2.326 8.556 2.298L8.649 2.272C8.77542 2.24052 8.90245 2.21152 9.03 2.185L9.058 2.179C9.3358 2.12246 9.61611 2.07908 9.898 2.049L9.981 2.042C10.0923 2.03133 10.204 2.02267 10.316 2.016L10.425 2.01C10.5603 2.00333 10.697 2 10.835 2L11.29 2.012ZM10.835 3.5C9.87175 3.5 8.91794 3.68973 8.02802 4.05834C7.13809 4.42696 6.32949 4.96725 5.64837 5.64837C4.96725 6.32949 4.42696 7.13809 4.05834 8.02802C3.68973 8.91794 3.5 9.87175 3.5 10.835C3.5 11.7982 3.68973 12.7521 4.05834 13.642C4.42696 14.5319 4.96725 15.3405 5.64837 16.0216C6.32949 16.7027 7.13809 17.243 8.02802 17.6117C8.91794 17.9803 9.87175 18.17 10.835 18.17C12.7804 18.17 14.646 17.3972 16.0216 16.0216C17.3972 14.646 18.17 12.7804 18.17 10.835C18.17 8.88964 17.3972 7.02395 16.0216 5.64837C14.646 4.27279 12.7804 3.5 10.835 3.5Z" fill="#1C1C1D"/>
</svg>
